<svg xmlns="http://www.w3.org/2000/svg" viewBox="0 0 320 320" role="img" aria-labelledby="title desc">
  <title id="title">Bifrost signal mark</title>
  <desc id="desc">An angular red and white technical mark for Bifrost documentation.</desc>
  <rect width="320" height="320" rx="28" fill="#050505"/>
  <path d="M72 92h176l-28 40H100L72 92Z" fill="#f2f2f2"/>
  <path d="M104 145h112l-24 34H128l-24-34Z" fill="#eb3f33"/>
  <path d="M68 215h184l-30 42H98l-30-42Z" fill="#f2f2f2"/>
  <path d="M48 52h224v30H48V52Zm0 186h224v30H48v-30Z" fill="#eb3f33"/>
  <path d="M48 52h64L80 82H48V52Zm160 0h64v30h-96l32-30ZM48 238h96l-32 30H48v-30Zm160 0h64v30h-96l32-30Z" fill="#ff6a5f"/>
</svg>
